<svg version="1.1" id="Layer_1" xmlns="http://www.w3.org/2000/svg" xmlns:xlink="http://www.w3.org/1999/xlink" x="0px" y="0px"
	 width="100%" viewBox="0 0 512 512" enable-background="new 0 0 512 512" xml:space="preserve">
<path fill="#000000" opacity="1.000000" stroke="none" 
	d="
M331.000000,513.000000 
	C220.693466,513.000000 110.886925,513.000000 1.040193,513.000000 
	C1.040193,342.401764 1.040193,171.803528 1.040193,1.102647 
	C171.556549,1.102647 342.113159,1.102647 512.834900,1.102647 
	C512.834900,171.666534 512.834900,342.333252 512.834900,513.000000 
	C452.470184,513.000000 391.985077,513.000000 331.000000,513.000000 
M369.989166,374.113129 
	C369.995392,360.131226 370.001648,346.149323 370.655029,331.867157 
	C377.787292,327.066895 384.874847,322.198395 392.064789,317.486145 
	C398.812775,313.063660 401.420135,307.426178 401.242432,298.929260 
	C400.643982,270.312439 401.079987,241.673965 401.788696,212.738281 
	C404.168243,211.815125 406.535461,210.858704 408.929230,209.973999 
	C430.873016,201.863907 452.829559,193.788254 474.760864,185.644608 
	C478.690582,184.185425 481.148987,181.853424 481.148163,176.983215 
	C481.147339,172.107758 478.665802,169.797867 474.743011,168.349075 
	C453.250519,160.411285 431.711853,152.598267 410.230255,144.631287 
	C386.625885,135.877014 363.079651,126.966057 339.483215,118.190231 
	C316.340393,109.583122 293.191101,100.992081 269.990082,92.543861 
	C263.512207,90.185074 257.270264,87.593163 249.799744,90.456062 
	C221.883713,101.154198 193.762695,111.317345 165.720474,121.686310 
	C136.143692,132.622681 106.567192,143.559814 76.994400,154.506958 
	C63.967751,159.329102 50.979382,164.256805 37.911255,168.963379 
	C34.074852,170.345093 32.391075,173.508545 32.506580,176.725983 
	C32.624798,180.019043 33.621220,183.683472 37.943226,185.065613 
	C44.408379,187.133133 50.728428,189.659927 57.089108,192.047546 
	C75.692726,199.030792 94.285904,206.041824 112.981857,213.965729 
	C113.036499,218.983185 113.091141,224.000656 113.020454,229.945709 
	C113.013618,253.923431 113.092636,277.901733 112.932503,301.878418 
	C112.897575,307.108307 114.173347,310.697906 118.558243,314.409576 
	C133.920471,327.413177 151.154053,337.162903 169.577805,344.665833 
	C200.421509,357.226562 232.598206,362.878052 266.897888,360.976654 
	C278.000580,359.970520 289.273834,359.851990 300.167572,357.758514 
	C318.312103,354.271545 336.004211,348.869385 352.986145,341.934967 
	C353.043121,352.555084 353.100098,363.175171 352.990448,374.326721 
	C352.979706,374.511719 352.968933,374.696716 352.287476,375.235077 
	C351.202362,378.080292 350.139313,380.934143 349.028198,383.769165 
	C345.223083,393.477539 341.188782,403.102783 337.653168,412.907990 
	C334.855042,420.667816 338.092377,425.020111 346.094879,424.991547 
	C352.723083,424.967896 359.350983,424.868011 366.900085,424.973785 
	C370.554047,424.982452 374.209290,425.057007 377.861603,424.983704 
	C382.825928,424.884094 385.425690,422.682465 384.836945,417.732910 
	C384.296631,413.190643 382.613586,408.727051 381.024384,404.378510 
	C377.433960,394.554016 373.590607,384.821991 369.989166,374.113129 
z"/>
<path fill="#3ABEFF" opacity="1.000000" stroke="none" 
	d="
M112.883171,213.041962 
	C94.285904,206.041824 75.692726,199.030792 57.089108,192.047546 
	C50.728428,189.659927 44.408379,187.133133 37.943226,185.065613 
	C33.621220,183.683472 32.624798,180.019043 32.506580,176.725983 
	C32.391075,173.508545 34.074852,170.345093 37.911255,168.963379 
	C50.979382,164.256805 63.967751,159.329102 76.994400,154.506958 
	C106.567192,143.559814 136.143692,132.622681 165.720474,121.686310 
	C193.762695,111.317345 221.883713,101.154198 249.799744,90.456062 
	C257.270264,87.593163 263.512207,90.185074 269.990082,92.543861 
	C293.191101,100.992081 316.340393,109.583122 339.483215,118.190231 
	C363.079651,126.966057 386.625885,135.877014 410.230255,144.631287 
	C431.711853,152.598267 453.250519,160.411285 474.743011,168.349075 
	C478.665802,169.797867 481.147339,172.107758 481.148163,176.983215 
	C481.148987,181.853424 478.690582,184.185425 474.760864,185.644608 
	C452.829559,193.788254 430.873016,201.863907 408.929230,209.973999 
	C406.535461,210.858704 404.168243,211.815125 401.051208,212.867249 
	C389.933716,216.658417 379.553650,220.320618 369.112427,223.537109 
	C368.885437,211.441681 367.993347,210.314240 357.053925,206.998810 
	C354.544434,206.238235 352.186768,204.989136 349.728821,204.044006 
	C320.280823,192.720749 290.822449,181.424347 261.379028,170.089188 
	C256.051056,168.038025 251.470551,169.430923 249.575348,173.837646 
	C247.582062,178.472427 249.782562,182.741348 255.616165,184.996262 
	C285.783356,196.657043 315.927643,208.380692 346.201813,219.757950 
	C351.509186,221.752487 354.283264,224.246155 352.510590,230.190613 
	C326.573730,239.800659 300.690460,248.611145 275.463287,259.012787 
	C262.733246,264.261627 251.734848,264.232697 238.936218,259.131165 
	C205.073288,245.633423 170.692947,233.429642 136.472443,220.836105 
	C128.705185,217.977676 120.751198,215.626587 112.883171,213.041962 
z"/>
<path fill="#35ADE8" opacity="1.000000" stroke="none" 
	d="
M265.979370,360.809204 
	C232.598206,362.878052 200.421509,357.226562 169.577805,344.665833 
	C151.154053,337.162903 133.920471,327.413177 118.558243,314.409576 
	C114.173347,310.697906 112.897575,307.108307 112.932503,301.878418 
	C113.092636,277.901733 113.013618,253.923431 113.470154,229.479706 
	C114.741531,229.120956 115.618454,229.078247 116.376770,229.357559 
	C132.138062,235.162643 147.889725,240.993927 163.635544,246.840912 
	C193.723511,258.013641 223.787308,269.252289 253.933289,280.266083 
	C256.046234,281.038025 258.975677,280.794891 261.149139,279.997803 
	C291.748718,268.775482 322.282990,257.375031 352.896057,246.481537 
	C352.918091,275.308472 352.877167,303.671661 352.535400,332.190369 
	C328.016663,345.434387 302.533447,354.723114 275.097809,358.284424 
	C272.001282,358.686371 269.016144,359.946838 265.979370,360.809204 
z"/>
<path fill="#E8E9FF" opacity="1.000000" stroke="none" 
	d="
M352.836243,332.034851 
	C352.877167,303.671661 352.918091,275.308472 352.960724,246.017334 
	C352.920074,240.075851 352.877747,235.062302 352.835388,230.048752 
	C354.283264,224.246155 351.509186,221.752487 346.201813,219.757950 
	C315.927643,208.380692 285.783356,196.657043 255.616165,184.996262 
	C249.782562,182.741348 247.582062,178.472427 249.575348,173.837646 
	C251.470551,169.430923 256.051056,168.038025 261.379028,170.089188 
	C290.822449,181.424347 320.280823,192.720749 349.728821,204.044006 
	C352.186768,204.989136 354.544434,206.238235 357.053925,206.998810 
	C367.993347,210.314240 368.885437,211.441681 369.047607,224.001801 
	C369.087402,229.935822 369.130768,234.959412 369.110718,240.449020 
	C369.091827,267.617859 369.136353,294.320679 369.115570,321.473633 
	C369.044495,325.246246 369.038727,328.568695 369.024109,332.366852 
	C368.986877,346.578339 368.958496,360.314117 368.672241,373.821411 
	C363.516266,367.038605 358.533356,367.104706 353.157043,373.795288 
	C353.100098,363.175171 353.043121,352.555084 352.973816,341.028503 
	C352.919739,337.426300 352.877991,334.730591 352.836243,332.034851 
z"/>
<path fill="#309CD1" opacity="1.000000" stroke="none" 
	d="
M352.510590,230.190613 
	C352.877747,235.062302 352.920074,240.075851 352.897766,245.553604 
	C322.282990,257.375031 291.748718,268.775482 261.149139,279.997803 
	C258.975677,280.794891 256.046234,281.038025 253.933289,280.266083 
	C223.787308,269.252289 193.723511,258.013641 163.635544,246.840912 
	C147.889725,240.993927 132.138062,235.162643 116.376770,229.357559 
	C115.618454,229.078247 114.741531,229.120956 113.532814,229.015900 
	C113.091141,224.000656 113.036499,218.983185 112.932510,213.503845 
	C120.751198,215.626587 128.705185,217.977676 136.472443,220.836105 
	C170.692947,233.429642 205.073288,245.633423 238.936218,259.131165 
	C251.734848,264.232697 262.733246,264.261627 275.463287,259.012787 
	C300.690460,248.611145 326.573730,239.800659 352.510590,230.190613 
z"/>
<path fill="#309CD1" opacity="1.000000" stroke="none" 
	d="
M369.174164,239.983002 
	C369.130768,234.959412 369.087402,229.935822 369.108826,224.447540 
	C379.553650,220.320618 389.933716,216.658417 400.717041,213.019989 
	C401.079987,241.673965 400.643982,270.312439 401.242432,298.929260 
	C401.420135,307.426178 398.812775,313.063660 392.064789,317.486145 
	C384.874847,322.198395 377.787292,327.066895 370.089417,331.942200 
	C369.360168,331.975189 369.196594,331.933167 369.032959,331.891174 
	C369.038727,328.568695 369.044495,325.246246 369.442566,321.395996 
	C385.000000,310.779510 385.000183,310.779510 384.999939,292.849030 
	C384.999695,275.212891 385.022278,257.576691 384.983948,239.940643 
	C384.972839,234.819977 384.267426,234.418686 379.470337,236.229156 
	C376.052795,237.518951 372.607239,238.734406 369.174164,239.983002 
z"/>
<path fill="#FFCF4D" opacity="1.000000" stroke="none" 
	d="
M365.979034,424.801910 
	C359.350983,424.868011 352.723083,424.967896 346.094879,424.991547 
	C338.092377,425.020111 334.855042,420.667816 337.653168,412.907990 
	C341.188782,403.102783 345.223083,393.477539 349.028198,383.769165 
	C350.139313,380.934143 351.202362,378.080292 352.689819,375.427307 
	C357.472656,386.587006 361.612640,397.659393 366.331543,408.479248 
	C368.824890,414.196136 369.973633,419.436401 365.979034,424.801910 
z"/>
<path fill="#E9BD46" opacity="1.000000" stroke="none" 
	d="
M366.439575,424.887848 
	C369.973633,419.436401 368.824890,414.196136 366.331543,408.479248 
	C361.612640,397.659393 357.472656,386.587006 353.025146,375.250641 
	C352.968933,374.696716 352.979706,374.511719 353.073730,374.061005 
	C358.533356,367.104706 363.516266,367.038605 368.731598,374.062073 
	C369.227539,374.840942 369.494659,375.014648 369.850128,375.052338 
	C373.590607,384.821991 377.433960,394.554016 381.024384,404.378510 
	C382.613586,408.727051 384.296631,413.190643 384.836945,417.732910 
	C385.425690,422.682465 382.825928,424.884094 377.861603,424.983704 
	C374.209290,425.057007 370.554047,424.982452 366.439575,424.887848 
z"/>
<path fill="#309DD3" opacity="1.000000" stroke="none" 
	d="
M352.535400,332.190369 
	C352.877991,334.730591 352.919739,337.426300 352.898560,340.565796 
	C336.004211,348.869385 318.312103,354.271545 300.167572,357.758514 
	C289.273834,359.851990 278.000580,359.970520 266.438629,360.892944 
	C269.016144,359.946838 272.001282,358.686371 275.097809,358.284424 
	C302.533447,354.723114 328.016663,345.434387 352.535400,332.190369 
z"/>
<path fill="#FFFFFF" opacity="1.000000" stroke="none" 
	d="
M369.919647,374.582733 
	C369.494659,375.014648 369.227539,374.840942 368.989441,374.290588 
	C368.958496,360.314117 368.986877,346.578339 369.024109,332.366852 
	C369.196594,331.933167 369.360168,331.975189 369.765808,332.092346 
	C370.001648,346.149323 369.995392,360.131226 369.919647,374.582733 
z"/>
<path fill="#35ADE8" opacity="1.000000" stroke="none" 
	d="
M369.110718,240.449020 
	C372.607239,238.734406 376.052795,237.518951 379.470337,236.229156 
	C384.267426,234.418686 384.972839,234.819977 384.983948,239.940643 
	C385.022278,257.576691 384.999695,275.212891 384.999939,292.849030 
	C385.000183,310.779510 385.000000,310.779510 369.507874,320.945862 
	C369.136353,294.320679 369.091827,267.617859 369.110718,240.449020 
z"/>
</svg>